<svg width="234" height="216" viewBox="0 0 234 216" fill="none" xmlns="http://www.w3.org/2000/svg">
<g clip-path="url(#clip0_11_31)">
<path d="M86.6889 32.5001C100.161 9.16697 133.839 9.16697 147.311 32.5001L213.995 148C227.467 171.333 210.627 200.5 183.684 200.5H50.3159C23.3734 200.5 6.53347 171.333 20.0048 148L86.6889 32.5001Z" stroke="black" stroke-width="30"/>
<path d="M16 160.5C16 153.596 21.9278 148 29.2401 148H163.76C171.073 148 177 153.596 177 160.5C177 167.404 171.073 173 163.76 173H29.2401C21.9278 173 16 167.404 16 160.5Z" fill="black"/>
<path d="M40 116.5C40 109.596 45.2867 104 51.8085 104H139.191C145.713 104 151 109.596 151 116.5C151 123.404 145.713 129 139.191 129H51.8085C45.2867 129 40 123.404 40 116.5Z" fill="black"/>
<path d="M115.972 60H69.0278C64.0419 60 60 65.5965 60 72.5C60 79.4035 64.0419 85 69.0278 85H115.972C120.958 85 125 79.4035 125 72.5C125 65.5965 120.958 60 115.972 60Z" fill="black"/>
</g>
<defs>
<clipPath id="clip0_11_31">
<rect width="234" height="216" fill="white"/>
</clipPath>
</defs>
</svg>
